<?xml version="1.0" encoding="UTF-8" standalone="no"?>
<svg
   xmlns="http://www.w3.org/2000/svg"
   version="1.1"
   viewBox="0 0 41.979351 46.126999"
   width="41.979351"
   height="46.126999">
  <path
     d="m 3.0429006,1.158 c -3.79999997,0.772 -3.79999997,1.158 -1.33,3.667 2.09,2.316 2.85,7.527 2.85,21.037 0,20.265 0,20.265 14.6300004,20.265 10.45,0 20.9,-5.983 22.61,-12.738 1.33,-5.211 -5.13,-14.282 -10.26,-14.282 -2.28,0 -2.28,-0.772 0.38,-4.825 4.37,-6.562 3.8,-10.422 -1.71,-12.931 -3.8,-1.737 -6.46,-1.737 -11.97,0.386 -4.94,1.737 -7.03,1.93 -7.6,0.193 C 10.262901,0.772 9.3129006,0 8.7429006,0 c -0.76,0.193 -3.23,0.772 -5.7,1.158 z M 25.082901,6.755 c 2.28,1.544 4.18,4.053 4.18,5.597 0,3.281 -5.89,6.755 -11.78,6.755 -3.23,0.193 -2.28,0.965 3.23,2.895 13.49,4.825 18.81,16.405 9.5,20.651 -3.23,1.351 -6.65,1.544 -10.83,0.386 l -6.27,-1.93 -0.57,-16.019 c -0.76,-20.651 2.66,-25.476 12.54,-18.335 z"
     style="fill:#1767b7;stroke-width:0" />
</svg>
